0
SECTION
2
HEADER
9
$INSUNITS
70
4
9
$ACADVER
1
AC1014
9
$HANDSEED
5
FFFF
0
ENDSEC
0
SECTION
2
TABLES
0
TABLE
2
VPORT
5
8
100
AcDbSymbolTable
0
ENDTAB
0
TABLE
2
LTYPE
5
5
100
AcDbSymbolTable
0
LTYPE
5
14
100
AcDbSymbolTableRecord
100
AcDbLinetypeTableRecord
2
BYBLOCK
70
0
0
LTYPE
5
15
100
AcDbSymbolTableRecord
100
AcDbLinetypeTableRecord
2
BYLAYER
70
0
0
LTYPE
5
16
100
AcDbSymbolTableRecord
100
AcDbLinetypeTableRecord
2
DASHED
70
0
3
Dashed __ __ __ __ __ __ __ __ __ __ __ __ __ _
72
65
73
2
40
0.75
49
0.5
74
0
49
-0.25
74
0
0
ENDTAB
0
TABLE
2
LAYER
5
2
100
AcDbSymbolTable
70
2
0
LAYER
5
50
100
AcDbSymbolTableRecord
100
AcDbLayerTableRecord
2
0
70
0
62
7
6
CONTINUOUS
0
ENDTAB
0
TABLE
2
STYLE
5
3
100
AcDbSymbolTable
70
1
0
STYLE
5
11
100
AcDbSymbolTableRecord
100
AcDbTextStyleTableRecord
2
STANDARD
70
0
0
ENDTAB
0
TABLE
2
VIEW
5
6
100
AcDbSymbolTable
70
0
0
ENDTAB
0
TABLE
2
UCS
5
7
100
AcDbSymbolTable
70
0
0
ENDTAB
0
TABLE
2
APPID
5
9
100
AcDbSymbolTable
70
2
0
APPID
5
12
100
AcDbSymbolTableRecord
100
AcDbRegAppTableRecord
2
ACAD
70
0
0
ENDTAB
0
TABLE
2
DIMSTYLE
5
A
100
AcDbSymbolTable
70
1
0
ENDTAB
0
TABLE
2
BLOCK_RECORD
5
1
100
AcDbSymbolTable
70
1
0
BLOCK_RECORD
5
1F
100
AcDbSymbolTableRecord
100
AcDbBlockTableRecord
2
*MODEL_SPACE
0
BLOCK_RECORD
5
1B
100
AcDbSymbolTableRecord
100
AcDbBlockTableRecord
2
*PAPER_SPACE
0
ENDTAB
0
ENDSEC
0
SECTION
2
BLOCKS
0
BLOCK
5
20
100
AcDbEntity
100
AcDbBlockBegin
2
*MODEL_SPACE
0
ENDBLK
5
21
100
AcDbEntity
100
AcDbBlockEnd
0
BLOCK
5
1C
100
AcDbEntity
100
AcDbBlockBegin
2
*PAPER_SPACE
0
ENDBLK
5
1D
100
AcDbEntity
100
AcDbBlockEnd
0
ENDSEC
0
SECTION
2
ENTITIES
0
CIRCLE
5
100
100
AcDbEntity
8
0
100
AcDbCircle
10
-30.48
20
2.54
30
0
40
1.25
210
0
220
-0
230
1
6
DASHED
0
CIRCLE
5
101
100
AcDbEntity
8
0
100
AcDbCircle
10
-24.130000000000003
20
17.780000000000001
30
0
40
0.49999999999999822
210
0
220
-0
230
1
6
DASHED
0
CIRCLE
5
102
100
AcDbEntity
8
0
100
AcDbCircle
10
-8.8900000000000006
20
17.780000000000001
30
0
40
0.50000000000000044
210
0
220
-0
230
1
6
DASHED
0
CIRCLE
5
103
100
AcDbEntity
8
0
100
AcDbCircle
10
-11.43
20
2.54
30
0
40
0.50000000000000044
210
0
220
-0
230
1
6
DASHED
0
CIRCLE
5
104
100
AcDbEntity
8
0
100
AcDbCircle
10
-21.590000000000003
20
17.780000000000001
30
0
40
0.49999999999999822
210
0
220
-0
230
1
6
DASHED
0
CIRCLE
5
105
100
AcDbEntity
8
0
100
AcDbCircle
10
-8.8900000000000006
20
2.54
30
0
40
0.50000000000000044
210
0
220
-0
230
1
6
DASHED
0
CIRCLE
5
106
100
AcDbEntity
8
0
100
AcDbCircle
10
-1.27
20
17.780000000000001
30
0
40
0.49999999999999989
210
0
220
-0
230
1
6
DASHED
0
CIRCLE
5
107
100
AcDbEntity
8
0
100
AcDbCircle
10
-19.050000000000004
20
2.54
30
0
40
0.50000000000000044
210
0
220
-0
230
1
6
DASHED
0
CIRCLE
5
108
100
AcDbEntity
8
0
100
AcDbCircle
10
-16.510000000000002
20
17.780000000000001
30
0
40
0.50000000000000044
210
0
220
-0
230
1
6
DASHED
0
CIRCLE
5
109
100
AcDbEntity
8
0
100
AcDbCircle
10
-21.590000000000003
20
2.54
30
0
40
0.49999999999999822
210
0
220
-0
230
1
6
DASHED
0
CIRCLE
5
110
100
AcDbEntity
8
0
100
AcDbCircle
10
-6.3499999999999996
20
17.780000000000001
30
0
40
0.50000000000000044
210
0
220
-0
230
1
6
DASHED
0
CIRCLE
5
111
100
AcDbEntity
8
0
100
AcDbCircle
10
-16.510000000000002
20
2.54
30
0
40
0.50000000000000044
210
0
220
-0
230
1
6
DASHED
0
CIRCLE
5
112
100
AcDbEntity
8
0
100
AcDbCircle
10
-19.050000000000004
20
17.780000000000001
30
0
40
0.50000000000000044
210
0
220
-0
230
1
6
DASHED
0
CIRCLE
5
113
100
AcDbEntity
8
0
100
AcDbCircle
10
-13.970000000000002
20
2.54
30
0
40
0.50000000000000044
210
0
220
-0
230
1
6
DASHED
0
CIRCLE
5
114
100
AcDbEntity
8
0
100
AcDbCircle
10
-2.54
20
2.54
30
0
40
1.25
210
0
220
-0
230
1
6
DASHED
0
CIRCLE
5
115
100
AcDbEntity
8
0
100
AcDbCircle
10
-29.210000000000001
20
17.780000000000001
30
0
40
0.49999999999999822
210
0
220
-0
230
1
6
DASHED
0
CIRCLE
5
116
100
AcDbEntity
8
0
100
AcDbCircle
10
-11.43
20
17.780000000000001
30
0
40
0.50000000000000044
210
0
220
-0
230
1
6
DASHED
0
CIRCLE
5
117
100
AcDbEntity
8
0
100
AcDbCircle
10
-26.670000000000002
20
17.780000000000001
30
0
40
0.49999999999999822
210
0
220
-0
230
1
6
DASHED
0
CIRCLE
5
118
100
AcDbEntity
8
0
100
AcDbCircle
10
-3.8100000000000001
20
17.780000000000001
30
0
40
0.49999999999999989
210
0
220
-0
230
1
6
DASHED
0
CIRCLE
5
119
100
AcDbEntity
8
0
100
AcDbCircle
10
-31.750000000000004
20
17.780000000000001
30
0
40
0.49999999999999822
210
0
220
-0
230
1
6
DASHED
0
CIRCLE
5
120
100
AcDbEntity
8
0
100
AcDbCircle
10
-13.970000000000002
20
17.780000000000001
30
0
40
0.50000000000000044
210
0
220
-0
230
1
6
DASHED
0
CIRCLE
5
121
100
AcDbEntity
8
0
100
AcDbCircle
10
-24.130000000000003
20
2.54
30
0
40
0.49999999999999822
210
0
220
-0
230
1
6
DASHED
0
LINE
5
122
100
AcDbEntity
8
0
100
AcDbLine
10
-2.7755575615628914e-15
20
2.5399998821180758
30
0
11
0
21
19.050000000000004
31
0
6
DASHED
0
LINE
5
123
100
AcDbEntity
8
0
100
AcDbLine
10
0
20
19.050000000000004
30
0
11
-33.020000000000003
21
19.050000000000004
31
0
6
DASHED
0
LINE
5
124
100
AcDbEntity
8
0
100
AcDbLine
10
-33.020000000000003
20
19.050000000000004
30
0
11
-33.020000000000003
21
2.5399999817638519
31
0
6
DASHED
0
ARC
5
125
100
AcDbEntity
8
0
100
AcDbCircle
10
-30.48
20
2.54
30
0
40
2.54
210
0
220
0
230
1
100
AcDbArc
50
180
51
269.99999887612557
6
DASHED
0
LINE
5
126
100
AcDbEntity
8
0
100
AcDbLine
10
-30.480000049822884
20
1.1766988420821358e-15
30
0
11
-2.5400000498228881
21
0
31
0
6
DASHED
0
ARC
5
127
100
AcDbEntity
8
0
100
AcDbCircle
10
-2.54
20
2.54
30
0
40
2.5400000000000005
210
0
220
0
230
1
100
AcDbArc
50
269.99999887612552
51
359.99999743867909
6
DASHED
0
LWPOLYLINE
5
128
100
AcDbEntity
8
0
100
AcDbPolyline
90
4
70
1
43
0.0
10
-32.75
20
20.780000000000001
10
-30.75
20
20.780000000000001
10
-30.75
20
15.780000000000003
10
-32.75
20
15.780000000000003
0
LINE
5
129
100
AcDbEntity
8
0
100
AcDbLine
10
-32.75
20
20.780000000000001
30
0
11
-30.75
21
15.780000000000003
31
0
6
DASHED
0
LINE
5
130
100
AcDbEntity
8
0
100
AcDbLine
10
-31.750000000000004
20
20.780000000000001
30
0
11
-31.750000000000004
21
15.780000000000003
31
0
6
DASHED
0
LWPOLYLINE
5
131
100
AcDbEntity
8
0
100
AcDbPolyline
90
4
70
1
43
0.0
10
-30.210000000000004
20
15.780000000000003
10
-30.210000000000004
20
20.780000000000001
10
-28.210000000000001
20
20.780000000000001
10
-28.210000000000001
20
15.780000000000003
0
LWPOLYLINE
5
132
100
AcDbEntity
8
0
100
AcDbPolyline
90
4
70
1
43
0.0
10
-27.670000000000002
20
15.780000000000003
10
-27.670000000000002
20
20.780000000000001
10
-25.670000000000002
20
20.780000000000001
10
-25.670000000000002
20
15.780000000000003
0
LWPOLYLINE
5
133
100
AcDbEntity
8
0
100
AcDbPolyline
90
4
70
1
43
0.0
10
-25.130000000000003
20
15.780000000000003
10
-25.130000000000003
20
20.780000000000001
10
-23.130000000000003
20
20.780000000000001
10
-23.130000000000003
20
15.780000000000003
0
LWPOLYLINE
5
134
100
AcDbEntity
8
0
100
AcDbPolyline
90
4
70
1
43
0.0
10
-22.590000000000003
20
15.780000000000003
10
-22.590000000000003
20
20.780000000000001
10
-20.590000000000003
20
20.780000000000001
10
-20.590000000000003
20
15.780000000000003
0
LWPOLYLINE
5
135
100
AcDbEntity
8
0
100
AcDbPolyline
90
4
70
1
43
0.0
10
-20.050000000000004
20
15.780000000000003
10
-20.050000000000004
20
20.780000000000001
10
-18.050000000000001
20
20.780000000000001
10
-18.050000000000001
20
15.780000000000003
0
LWPOLYLINE
5
136
100
AcDbEntity
8
0
100
AcDbPolyline
90
4
70
1
43
0.0
10
-17.510000000000005
20
15.780000000000003
10
-17.510000000000005
20
20.780000000000001
10
-15.510000000000002
20
20.780000000000001
10
-15.510000000000002
20
15.780000000000003
0
LWPOLYLINE
5
137
100
AcDbEntity
8
0
100
AcDbPolyline
90
4
70
1
43
0.0
10
-14.970000000000002
20
15.780000000000003
10
-14.970000000000002
20
20.780000000000001
10
-12.970000000000002
20
20.780000000000001
10
-12.970000000000002
20
15.780000000000003
0
LWPOLYLINE
5
138
100
AcDbEntity
8
0
100
AcDbPolyline
90
4
70
1
43
0.0
10
-12.430000000000003
20
15.780000000000003
10
-12.430000000000003
20
20.780000000000001
10
-10.430000000000001
20
20.780000000000001
10
-10.430000000000001
20
15.780000000000003
0
LWPOLYLINE
5
139
100
AcDbEntity
8
0
100
AcDbPolyline
90
4
70
1
43
0.0
10
-9.8900000000000041
20
15.780000000000003
10
-9.8900000000000041
20
20.780000000000001
10
-7.8900000000000015
20
20.780000000000001
10
-7.8900000000000006
20
15.780000000000003
0
LWPOLYLINE
5
140
100
AcDbEntity
8
0
100
AcDbPolyline
90
4
70
1
43
0.0
10
-7.3500000000000032
20
15.780000000000003
10
-7.3500000000000032
20
20.780000000000001
10
-5.3500000000000014
20
20.780000000000001
10
-5.3500000000000005
20
15.780000000000003
0
LWPOLYLINE
5
141
100
AcDbEntity
8
0
100
AcDbPolyline
90
4
70
1
43
0.0
10
-4.8100000000000023
20
15.780000000000003
10
-4.8100000000000032
20
20.780000000000001
10
-2.8100000000000014
20
20.780000000000001
10
-2.8100000000000009
20
15.780000000000003
0
LWPOLYLINE
5
142
100
AcDbEntity
8
0
100
AcDbPolyline
90
4
70
1
43
0.0
10
-2.2700000000000027
20
15.780000000000003
10
-2.2700000000000031
20
20.780000000000001
10
-0.27000000000000135
20
20.780000000000001
10
-0.27000000000000074
20
15.780000000000003
0
LINE
5
143
100
AcDbEntity
8
0
100
AcDbLine
10
-25.13000000000001
20
-0.45999999999999847
30
0
11
-25.130000000000003
21
4.54
31
0
0
LINE
5
144
100
AcDbEntity
8
0
100
AcDbLine
10
-25.130000000000003
20
4.54
30
0
11
-23.130000000000003
21
4.5399999999999991
31
0
0
LINE
5
145
100
AcDbEntity
8
0
100
AcDbLine
10
-23.130000000000003
20
4.5399999999999991
30
0
11
-23.130000000000006
21
-0.45999999999999847
31
0
0
LINE
5
146
100
AcDbEntity
8
0
100
AcDbLine
10
-23.130000000000006
20
-0.45999999999999847
30
0
11
-25.13000000000001
21
-0.45999999999999847
31
0
0
LINE
5
147
100
AcDbEntity
8
0
100
AcDbLine
10
-25.130000000000003
20
4.54
30
0
11
-23.130000000000006
21
-0.45999999999999847
31
0
6
DASHED
0
LINE
5
148
100
AcDbEntity
8
0
100
AcDbLine
10
-24.130000000000003
20
4.54
30
0
11
-24.130000000000006
21
-0.45999999999999847
31
0
6
DASHED
0
LWPOLYLINE
5
149
100
AcDbEntity
8
0
100
AcDbPolyline
90
4
70
1
43
0.0
10
-22.590000000000007
20
-0.45999999999999847
10
-22.590000000000003
20
4.54
10
-20.590000000000003
20
4.5399999999999991
10
-20.590000000000007
20
-0.45999999999999847
0
LWPOLYLINE
5
150
100
AcDbEntity
8
0
100
AcDbPolyline
90
4
70
1
43
0.0
10
-20.050000000000008
20
-0.45999999999999847
10
-20.050000000000004
20
4.54
10
-18.050000000000001
20
4.5399999999999991
10
-18.050000000000004
20
-0.45999999999999847
0
LWPOLYLINE
5
151
100
AcDbEntity
8
0
100
AcDbPolyline
90
4
70
1
43
0.0
10
-17.510000000000009
20
-0.45999999999999847
10
-17.510000000000005
20
4.54
10
-15.510000000000002
20
4.5399999999999991
10
-15.510000000000005
20
-0.45999999999999847
0
LWPOLYLINE
5
152
100
AcDbEntity
8
0
100
AcDbPolyline
90
4
70
1
43
0.0
10
-14.970000000000008
20
-0.45999999999999847
10
-14.970000000000002
20
4.54
10
-12.970000000000002
20
4.5399999999999991
10
-12.970000000000006
20
-0.45999999999999847
0
LWPOLYLINE
5
153
100
AcDbEntity
8
0
100
AcDbPolyline
90
4
70
1
43
0.0
10
-12.430000000000007
20
-0.45999999999999847
10
-12.430000000000003
20
4.54
10
-10.430000000000001
20
4.5399999999999991
10
-10.430000000000007
20
-0.45999999999999847
0
LWPOLYLINE
5
154
100
AcDbEntity
8
0
100
AcDbPolyline
90
4
70
1
43
0.0
10
-9.8900000000000077
20
-0.45999999999999847
10
-9.8900000000000041
20
4.54
10
-7.8900000000000023
20
4.5399999999999991
10
-7.8900000000000059
20
-0.45999999999999847
0
ENDSEC
0
SECTION
2
OBJECTS
0
DICTIONARY
5
C
100
AcDbDictionary
3
ACAD_GROUP
350
D
3
ACAD_MLINESTYLE
350
17
0
DICTIONARY
5
D
100
AcDbDictionary
0
DICTIONARY
5
1A
330
C
100
AcDbDictionary
0
DICTIONARY
5
17
100
AcDbDictionary
0
ENDSEC
0
EOF
