0
SECTION
2
HEADER
9
$INSUNITS
70
4
9
$ACADVER
1
AC1014
9
$HANDSEED
5
FFFF
0
ENDSEC
0
SECTION
2
TABLES
0
TABLE
2
VPORT
5
8
100
AcDbSymbolTable
0
ENDTAB
0
TABLE
2
LTYPE
5
5
100
AcDbSymbolTable
0
LTYPE
5
14
100
AcDbSymbolTableRecord
100
AcDbLinetypeTableRecord
2
BYBLOCK
70
0
0
LTYPE
5
15
100
AcDbSymbolTableRecord
100
AcDbLinetypeTableRecord
2
BYLAYER
70
0
0
LTYPE
5
16
100
AcDbSymbolTableRecord
100
AcDbLinetypeTableRecord
2
DASHED
70
0
3
Dashed __ __ __ __ __ __ __ __ __ __ __ __ __ _
72
65
73
2
40
0.75
49
0.5
74
0
49
-0.25
74
0
0
ENDTAB
0
TABLE
2
LAYER
5
2
100
AcDbSymbolTable
70
2
0
LAYER
5
50
100
AcDbSymbolTableRecord
100
AcDbLayerTableRecord
2
0
70
0
62
7
6
CONTINUOUS
0
ENDTAB
0
TABLE
2
STYLE
5
3
100
AcDbSymbolTable
70
1
0
STYLE
5
11
100
AcDbSymbolTableRecord
100
AcDbTextStyleTableRecord
2
STANDARD
70
0
0
ENDTAB
0
TABLE
2
VIEW
5
6
100
AcDbSymbolTable
70
0
0
ENDTAB
0
TABLE
2
UCS
5
7
100
AcDbSymbolTable
70
0
0
ENDTAB
0
TABLE
2
APPID
5
9
100
AcDbSymbolTable
70
2
0
APPID
5
12
100
AcDbSymbolTableRecord
100
AcDbRegAppTableRecord
2
ACAD
70
0
0
ENDTAB
0
TABLE
2
DIMSTYLE
5
A
100
AcDbSymbolTable
70
1
0
ENDTAB
0
TABLE
2
BLOCK_RECORD
5
1
100
AcDbSymbolTable
70
1
0
BLOCK_RECORD
5
1F
100
AcDbSymbolTableRecord
100
AcDbBlockTableRecord
2
*MODEL_SPACE
0
BLOCK_RECORD
5
1B
100
AcDbSymbolTableRecord
100
AcDbBlockTableRecord
2
*PAPER_SPACE
0
ENDTAB
0
ENDSEC
0
SECTION
2
BLOCKS
0
BLOCK
5
20
100
AcDbEntity
100
AcDbBlockBegin
2
*MODEL_SPACE
0
ENDBLK
5
21
100
AcDbEntity
100
AcDbBlockEnd
0
BLOCK
5
1C
100
AcDbEntity
100
AcDbBlockBegin
2
*PAPER_SPACE
0
ENDBLK
5
1D
100
AcDbEntity
100
AcDbBlockEnd
0
ENDSEC
0
SECTION
2
ENTITIES
0
ARC
5
100
100
AcDbEntity
8
0
100
AcDbCircle
10
15.240000000000006
20
2.5400000000000009
30
0
40
2.5400000000000009
210
-0
220
0
230
1
100
AcDbArc
50
270
51
352.99788965355049
6
DASHED
0
LINE
5
101
100
AcDbEntity
8
0
100
AcDbLine
10
15.240000000000006
20
0
30
0
11
2.54
21
0
31
0
6
DASHED
0
ARC
5
102
100
AcDbEntity
8
0
100
AcDbCircle
10
2.54
20
2.54
30
0
40
2.54
210
0
220
0
230
1
100
AcDbArc
50
187.00211034644946
51
270
6
DASHED
0
ARC
5
103
100
AcDbEntity
8
0
100
AcDbCircle
10
2.54
20
18.161000000000001
30
0
40
2.5399999999999978
210
0
220
-0
230
1
100
AcDbArc
50
89.999999999999986
51
173.02051116732645
6
DASHED
0
LINE
5
104
100
AcDbEntity
8
0
100
AcDbLine
10
2.5400000000000005
20
20.701000000000001
30
0
11
15.24
21
20.701000000000001
31
0
6
DASHED
0
ARC
5
105
100
AcDbEntity
8
0
100
AcDbCircle
10
15.240000000000006
20
18.161000000000001
30
0
40
2.5399999999999991
210
0
220
-0
230
1
100
AcDbArc
50
6.9794888326735505
51
90.000000000000128
6
DASHED
0
LINE
5
106
100
AcDbEntity
8
0
100
AcDbLine
10
13.360000000000005
20
21.694107938906832
30
0
11
12.110000000000005
21
21.694107938906832
31
0
6
DASHED
0
LINE
5
107
100
AcDbEntity
8
0
100
AcDbLine
10
13.360000000000005
20
21.694107938906832
30
0
11
13.360000000000005
21
19.744107938906829
31
0
6
DASHED
0
LINE
5
108
100
AcDbEntity
8
0
100
AcDbLine
10
5.6700000000000053
20
21.694107938906832
30
0
11
12.110000000000005
21
21.694107938906825
31
0
6
DASHED
0
LINE
5
109
100
AcDbEntity
8
0
100
AcDbLine
10
4.4200000000000035
20
19.744107938906833
30
0
11
4.4200000000000044
21
21.694107938906832
31
0
6
DASHED
0
LINE
5
110
100
AcDbEntity
8
0
100
AcDbLine
10
5.6700000000000035
20
21.694107938906832
30
0
11
4.4200000000000044
21
21.694107938906832
31
0
6
DASHED
0
LINE
5
111
100
AcDbEntity
8
0
100
AcDbLine
10
17.761177877954989
20
18.469645602123869
30
0
11
17.761055822029196
21
2.2303590107677196
31
0
6
DASHED
0
LINE
5
112
100
AcDbEntity
8
0
100
AcDbLine
10
0.018822122045017844
20
18.469645602123869
30
0
11
0.018944177970813825
21
2.2303590107677209
31
0
6
DASHED
0
LINE
5
113
100
AcDbEntity
8
0
100
AcDbLine
10
13.060000000000002
20
14.394107938906828
30
0
11
13.360000000000003
21
14.394107938906828
31
0
6
DASHED
0
LINE
5
114
100
AcDbEntity
8
0
100
AcDbLine
10
12.110000000000003
20
14.394107938906831
30
0
11
13.360000000000003
21
14.394107938906828
31
0
6
DASHED
0
LINE
5
115
100
AcDbEntity
8
0
100
AcDbLine
10
12.110000000000003
20
14.394107938906831
30
0
11
5.6700000000000017
21
14.394107938906833
31
0
6
DASHED
0
LINE
5
116
100
AcDbEntity
8
0
100
AcDbLine
10
4.4200000000000017
20
14.394107938906831
30
0
11
5.6700000000000017
21
14.394107938906833
31
0
6
DASHED
0
LINE
5
117
100
AcDbEntity
8
0
100
AcDbLine
10
4.4200000000000017
20
14.394107938906831
30
0
11
4.7200000000000024
21
14.394107938906831
31
0
6
DASHED
0
LINE
5
118
100
AcDbEntity
8
0
100
AcDbLine
10
5.6700000000000017
20
14.394107938906833
30
0
11
4.7200000000000024
21
14.394107938906831
31
0
6
DASHED
0
LINE
5
119
100
AcDbEntity
8
0
100
AcDbLine
10
5.6700000000000017
20
14.394107938906833
30
0
11
12.110000000000003
21
14.394107938906831
31
0
6
DASHED
0
LINE
5
120
100
AcDbEntity
8
0
100
AcDbLine
10
13.060000000000002
20
14.394107938906828
30
0
11
12.110000000000003
21
14.394107938906831
31
0
6
DASHED
0
LINE
5
121
100
AcDbEntity
8
0
100
AcDbLine
10
13.360000000000005
20
19.744107938906829
30
0
11
13.360000000000003
21
14.394107938906828
31
0
6
DASHED
0
LINE
5
122
100
AcDbEntity
8
0
100
AcDbLine
10
4.4200000000000035
20
19.744107938906833
30
0
11
4.4200000000000017
21
14.394107938906831
31
0
6
DASHED
0
LINE
5
123
100
AcDbEntity
8
0
100
AcDbLine
10
15.24
20
20.701000000000001
30
0
11
13.360000000000005
21
20.719107938906831
31
0
6
DASHED
0
LINE
5
124
100
AcDbEntity
8
0
100
AcDbLine
10
2.5400000000000005
20
20.701000000000001
30
0
11
4.4200000000000035
21
20.719107938906831
31
0
6
DASHED
0
CIRCLE
5
125
100
AcDbEntity
8
0
100
AcDbCircle
10
16.510000000000005
20
17.969999999999999
30
0
40
0.50000000000000044
210
0
220
-0
230
1
6
DASHED
0
CIRCLE
5
126
100
AcDbEntity
8
0
100
AcDbCircle
10
16.510000000000005
20
15.43
30
0
40
0.50000000000000044
210
0
220
-0
230
1
6
DASHED
0
CIRCLE
5
127
100
AcDbEntity
8
0
100
AcDbCircle
10
16.510000000000002
20
12.889999999999999
30
0
40
0.50000000000000044
210
0
220
-0
230
1
6
DASHED
0
CIRCLE
5
128
100
AcDbEntity
8
0
100
AcDbCircle
10
16.510000000000002
20
10.35
30
0
40
0.50000000000000044
210
0
220
-0
230
1
6
DASHED
0
CIRCLE
5
129
100
AcDbEntity
8
0
100
AcDbCircle
10
16.510000000000002
20
7.8099999999999987
30
0
40
0.50000000000000044
210
0
220
-0
230
1
6
DASHED
0
CIRCLE
5
130
100
AcDbEntity
8
0
100
AcDbCircle
10
16.510000000000002
20
5.2699999999999996
30
0
40
0.50000000000000044
210
0
220
-0
230
1
6
DASHED
0
CIRCLE
5
131
100
AcDbEntity
8
0
100
AcDbCircle
10
16.510000000000002
20
2.7299999999999991
30
0
40
0.50000000000000044
210
0
220
-0
230
1
6
DASHED
0
ARC
5
132
100
AcDbEntity
8
0
100
AcDbCircle
10
17.780000000000001
20
2.7299999999999991
30
0
40
0.50000000000000044
210
0
220
-0
230
1
100
AcDbArc
50
90
51
267.82863739193726
6
DASHED
0
ARC
5
133
100
AcDbEntity
8
0
100
AcDbCircle
10
17.780000000000001
20
5.2699999999999996
30
0
40
0.50000000000000044
210
0
220
-0
230
1
100
AcDbArc
50
90
51
270
6
DASHED
0
ARC
5
134
100
AcDbEntity
8
0
100
AcDbCircle
10
17.780000000000001
20
7.8099999999999987
30
0
40
0.50000000000000044
210
0
220
-0
230
1
100
AcDbArc
50
90
51
270
6
DASHED
0
ARC
5
135
100
AcDbEntity
8
0
100
AcDbCircle
10
17.780000000000001
20
10.35
30
0
40
0.50000000000000044
210
0
220
-0
230
1
100
AcDbArc
50
90
51
270
6
DASHED
0
ARC
5
136
100
AcDbEntity
8
0
100
AcDbCircle
10
17.780000000000001
20
12.889999999999999
30
0
40
0.50000000000000044
210
0
220
-0
230
1
100
AcDbArc
50
90
51
270
6
DASHED
0
ARC
5
137
100
AcDbEntity
8
0
100
AcDbCircle
10
17.780000000000005
20
15.43
30
0
40
0.50000000000000044
210
0
220
0
230
1
100
AcDbArc
50
90.000000000000398
51
269.9999999999996
6
DASHED
0
ARC
5
138
100
AcDbEntity
8
0
100
AcDbCircle
10
17.780000000000005
20
17.969999999999999
30
0
40
0.50000000000000033
210
0
220
0
230
1
100
AcDbArc
50
92.157366044038341
51
269.9999999999996
6
DASHED
0
CIRCLE
5
139
100
AcDbEntity
8
0
100
AcDbCircle
10
1.2700000000000033
20
17.969999999999999
30
0
40
0.49999999999999989
210
0
220
-0
230
1
6
DASHED
0
ARC
5
140
100
AcDbEntity
8
0
100
AcDbCircle
10
3.3306690738754696e-15
20
17.969999999999999
30
0
40
0.50000000000000044
210
0
220
0
230
1
100
AcDbArc
50
-90.000000000000398
51
87.842633955962242
6
DASHED
0
ARC
5
141
100
AcDbEntity
8
0
100
AcDbCircle
10
2.2204460492503131e-15
20
15.43
30
0
40
0.50000000000000044
210
0
220
0
230
1
100
AcDbArc
50
-90.000000000000256
51
90.000000000000256
6
DASHED
0
CIRCLE
5
142
100
AcDbEntity
8
0
100
AcDbCircle
10
1.2700000000000022
20
15.43
30
0
40
0.49999999999999989
210
0
220
-0
230
1
6
DASHED
0
CIRCLE
5
143
100
AcDbEntity
8
0
100
AcDbCircle
10
1.2700000000000011
20
12.889999999999999
30
0
40
0.49999999999999989
210
0
220
-0
230
1
6
DASHED
0
ARC
5
144
100
AcDbEntity
8
0
100
AcDbCircle
10
1.1102230246251565e-15
20
12.889999999999999
30
0
40
0.50000000000000044
210
0
220
0
230
1
100
AcDbArc
50
-90.000000000000142
51
90.000000000000128
6
DASHED
0
ARC
5
145
100
AcDbEntity
8
0
100
AcDbCircle
10
0
20
10.35
30
0
40
0.50000000000000044
210
0
220
0
230
1
100
AcDbArc
50
-90
51
90
6
DASHED
0
CIRCLE
5
146
100
AcDbEntity
8
0
100
AcDbCircle
10
1.27
20
10.35
30
0
40
0.49999999999999989
210
0
220
-0
230
1
6
DASHED
0
ARC
5
147
100
AcDbEntity
8
0
100
AcDbCircle
10
-1.1102230246251565e-15
20
7.8099999999999987
30
0
40
0.50000000000000044
210
-0
220
0
230
1
100
AcDbArc
50
-89.999999999999901
51
89.999999999999872
6
DASHED
0
CIRCLE
5
148
100
AcDbEntity
8
0
100
AcDbCircle
10
1.2699999999999989
20
7.8099999999999987
30
0
40
0.49999999999999989
210
0
220
-0
230
1
6
DASHED
0
ARC
5
149
100
AcDbEntity
8
0
100
AcDbCircle
10
-2.2204460492503131e-15
20
5.2699999999999996
30
0
40
0.49999999999999989
210
-0
220
0
230
1
100
AcDbArc
50
-89.999999999999744
51
89.999999999999744
6
DASHED
0
CIRCLE
5
150
100
AcDbEntity
8
0
100
AcDbCircle
10
1.2699999999999978
20
5.2699999999999996
30
0
40
0.49999999999999989
210
0
220
-0
230
1
6
DASHED
0
CIRCLE
5
151
100
AcDbEntity
8
0
100
AcDbCircle
10
1.2699999999999967
20
2.7299999999999991
30
0
40
0.49999999999999989
210
0
220
-0
230
1
6
DASHED
0
ARC
5
152
100
AcDbEntity
8
0
100
AcDbCircle
10
-3.3306690738754696e-15
20
2.7299999999999991
30
0
40
0.5
210
-0
220
0
230
1
100
AcDbArc
50
-87.828637391935942
51
89.999999999999616
6
DASHED
0
LINE
5
153
100
AcDbEntity
8
0
100
AcDbLine
10
17.761166606484945
20
16.969999999999999
30
0
11
16.510000000000005
21
16.969999999999999
31
0
6
DASHED
0
LINE
5
154
100
AcDbEntity
8
0
100
AcDbLine
10
17.647720706394331
20
18.969999999999999
30
0
11
16.510000000000005
21
18.969999999999999
31
0
6
DASHED
0
LINE
5
155
100
AcDbEntity
8
0
100
AcDbLine
10
8.5739999999999839
20
2.8643248654051554
30
0
11
8.0739999999999839
21
2.8643248654051519
31
0
6
DASHED
0
LINE
5
156
100
AcDbEntity
8
0
100
AcDbLine
10
8.0739999999999839
20
2.8643248654051519
30
0
11
8.0739999999999945
21
0.10299999999996423
31
0
6
DASHED
0
LINE
5
157
100
AcDbEntity
8
0
100
AcDbLine
10
8.0739999999999945
20
0.10299999999996423
30
0
11
14.074000000000005
21
0.10300000000000475
31
0
6
DASHED
0
LINE
5
158
100
AcDbEntity
8
0
100
AcDbLine
10
14.074000000000005
20
0.10300000000000475
30
0
11
14.073999999999973
21
2.8643248654051945
31
0
6
DASHED
0
LINE
5
159
100
AcDbEntity
8
0
100
AcDbLine
10
14.073999999999973
20
2.8643248654051945
30
0
11
13.573999999999984
21
2.8643248654051905
31
0
6
DASHED
0
LINE
5
160
100
AcDbEntity
8
0
100
AcDbLine
10
13.573999999999984
20
2.8643248654051905
30
0
11
13.573999999999964
21
4.3530000000000051
31
0
6
DASHED
0
LINE
5
161
100
AcDbEntity
8
0
100
AcDbLine
10
13.573999999999964
20
4.3530000000000051
30
0
11
8.5739999999999732
21
4.3529999999999642
31
0
6
DASHED
0
LINE
5
162
100
AcDbEntity
8
0
100
AcDbLine
10
8.5739999999999732
20
4.3529999999999642
30
0
11
8.5739999999999839
21
2.8643248654051554
31
0
6
DASHED
0
ARC
5
163
100
AcDbEntity
8
0
100
AcDbCircle
10
16.510000000000005
20
17.969999999999999
30
0
40
1.0000000000000009
210
-0
220
0
230
1
100
AcDbArc
50
90
51
270
6
DASHED
0
LINE
5
164
100
AcDbEntity
8
0
100
AcDbLine
10
17.761147515618497
20
14.429999999999998
30
0
11
16.510000000000005
21
14.429999999999998
31
0
6
DASHED
0
ARC
5
165
100
AcDbEntity
8
0
100
AcDbCircle
10
16.510000000000005
20
15.43
30
0
40
1.0000000000000009
210
-0
220
0
230
1
100
AcDbArc
50
90
51
270
6
DASHED
0
LINE
5
166
100
AcDbEntity
8
0
100
AcDbLine
10
17.761162547796804
20
16.43
30
0
11
16.510000000000005
21
16.43
31
0
6
DASHED
0
LINE
5
167
100
AcDbEntity
8
0
100
AcDbLine
10
17.761147515618497
20
11.889999999999999
30
0
11
16.510000000000005
21
11.889999999999999
31
0
6
DASHED
0
ARC
5
168
100
AcDbEntity
8
0
100
AcDbCircle
10
16.510000000000005
20
12.889999999999999
30
0
40
1.0000000000000009
210
0
220
-0
230
1
100
AcDbArc
50
90
51
270
6
DASHED
0
LINE
5
169
100
AcDbEntity
8
0
100
AcDbLine
10
17.761162547796804
20
13.890000000000001
30
0
11
16.510000000000005
21
13.890000000000001
31
0
6
DASHED
0
LINE
5
170
100
AcDbEntity
8
0
100
AcDbLine
10
17.761147515618497
20
9.3499999999999979
30
0
11
16.510000000000005
21
9.3499999999999979
31
0
6
DASHED
0
ARC
5
171
100
AcDbEntity
8
0
100
AcDbCircle
10
16.510000000000005
20
10.35
30
0
40
1.0000000000000009
210
0
220
-0
230
1
100
AcDbArc
50
90
51
270
6
DASHED
0
LINE
5
172
100
AcDbEntity
8
0
100
AcDbLine
10
17.761162547796804
20
11.35
30
0
11
16.510000000000005
21
11.35
31
0
6
DASHED
0
LINE
5
173
100
AcDbEntity
8
0
100
AcDbLine
10
17.761147515618497
20
6.8099999999999987
30
0
11
16.510000000000005
21
6.8099999999999987
31
0
6
DASHED
0
ARC
5
174
100
AcDbEntity
8
0
100
AcDbCircle
10
16.510000000000005
20
7.8099999999999987
30
0
40
1.0000000000000009
210
0
220
-0
230
1
100
AcDbArc
50
90
51
270
6
DASHED
0
LINE
5
175
100
AcDbEntity
8
0
100
AcDbLine
10
17.761162547796804
20
8.8100000000000005
30
0
11
16.510000000000005
21
8.8100000000000005
31
0
6
DASHED
0
LINE
5
176
100
AcDbEntity
8
0
100
AcDbLine
10
17.761147515618497
20
4.2699999999999978
30
0
11
16.510000000000005
21
4.2699999999999978
31
0
6
DASHED
0
ARC
5
177
100
AcDbEntity
8
0
100
AcDbCircle
10
16.510000000000005
20
5.2699999999999996
30
0
40
1.0000000000000009
210
0
220
-0
230
1
100
AcDbArc
50
90
51
270
6
DASHED
0
LINE
5
178
100
AcDbEntity
8
0
100
AcDbLine
10
17.761162547796804
20
6.2699999999999996
30
0
11
16.510000000000005
21
6.2699999999999996
31
0
6
DASHED
0
CIRCLE
5
179
100
AcDbEntity
8
0
100
AcDbCircle
10
1.2700000000000033
20
17.969999999999999
30
0
40
1
210
0
220
-0
230
1
6
DASHED
0
LINE
5
180
100
AcDbEntity
8
0
100
AcDbLine
10
1.2700000000000033
20
18.969999999999999
30
0
11
0.13227929360567381
21
18.969999999999999
31
0
6
DASHED
0
LINE
5
181
100
AcDbEntity
8
0
100
AcDbLine
10
0.018833393585741404
20
16.969990596091993
30
0
11
1.2700075160891564
21
16.970000000028243
31
0
6
DASHED
0
CIRCLE
5
182
100
AcDbEntity
8
0
100
AcDbCircle
10
1.2699999999999967
20
2.7299999999999991
30
0
40
1
210
0
220
-0
230
1
6
DASHED
0
CIRCLE
5
183
100
AcDbEntity
8
0
100
AcDbCircle
10
16.510000000000002
20
2.7299999999999991
30
0
40
1.0000000000000004
210
0
220
-0
230
1
6
DASHED
0
LINE
5
184
100
AcDbEntity
8
0
100
AcDbLine
10
17.761067093393891
20
3.7299905968964358
30
0
11
16.510007516089154
21
3.7299999999717537
31
0
6
DASHED
0
LINE
5
185
100
AcDbEntity
8
0
100
AcDbLine
10
16.509992483910846
20
1.7300000000282445
30
0
11
17.647381596475636
21
1.7299914513102734
31
0
6
DASHED
0
LINE
5
186
100
AcDbEntity
8
0
100
AcDbLine
10
0.018932906606123411
20
3.7299905968964349
30
0
11
1.2699924839108441
21
3.7299999999717532
31
0
6
DASHED
0
LINE
5
187
100
AcDbEntity
8
0
100
AcDbLine
10
1.2699999999999965
20
1.7299999999999993
30
0
11
0.13261552717477254
21
1.73
31
0
6
DASHED
0
LINE
5
188
100
AcDbEntity
8
0
100
AcDbLine
10
1.2699924839108492
20
16.429999999971756
30
0
11
0.018837452273883466
21
16.429990596178992
31
0
6
DASHED
0
LINE
5
189
100
AcDbEntity
8
0
100
AcDbLine
10
1.2700075160891535
20
14.430000000028244
30
0
11
0.018852484452189393
21
14.429990596235482
31
0
6
DASHED
0
ARC
5
190
100
AcDbEntity
8
0
100
AcDbCircle
10
1.2700000000000022
20
15.43
30
0
40
1.0000000000000004
210
0
220
0
230
1
100
AcDbArc
50
-89.999569359813208
51
90.000430640186934
6
DASHED
0
LINE
5
191
100
AcDbEntity
8
0
100
AcDbLine
10
1.2699924839108492
20
13.889999999971753
30
0
11
0.018837452273883466
21
13.889990596178992
31
0
6
DASHED
0
ARC
5
192
100
AcDbEntity
8
0
100
AcDbCircle
10
1.2700000000000022
20
12.889999999999999
30
0
40
1.0000000000000004
210
0
220
0
230
1
100
AcDbArc
50
-89.999569359813208
51
90.000430640186934
6
DASHED
0
LINE
5
193
100
AcDbEntity
8
0
100
AcDbLine
10
1.2700075160891535
20
11.890000000028245
30
0
11
0.018852484452189393
21
11.889990596235481
31
0
6
DASHED
0
LINE
5
194
100
AcDbEntity
8
0
100
AcDbLine
10
1.2699924839108492
20
11.349999999971754
30
0
11
0.018837452273883466
21
11.349990596178991
31
0
6
DASHED
0
ARC
5
195
100
AcDbEntity
8
0
100
AcDbCircle
10
1.2700000000000022
20
10.35
30
0
40
1.0000000000000004
210
0
220
0
230
1
100
AcDbArc
50
-89.999569359813208
51
90.000430640186934
6
DASHED
0
LINE
5
196
100
AcDbEntity
8
0
100
AcDbLine
10
1.2700075160891535
20
9.3500000000282455
30
0
11
0.018852484452189393
21
9.3499905962354823
31
0
6
DASHED
0
LINE
5
197
100
AcDbEntity
8
0
100
AcDbLine
10
1.2699924839108492
20
8.8099999999717546
30
0
11
0.018837452273883466
21
8.8099905961789915
31
0
6
DASHED
0
ARC
5
198
100
AcDbEntity
8
0
100
AcDbCircle
10
1.2700000000000022
20
7.8099999999999987
30
0
40
1.0000000000000004
210
0
220
0
230
1
100
AcDbArc
50
-89.999569359813208
51
90.000430640186934
6
DASHED
0
LINE
5
199
100
AcDbEntity
8
0
100
AcDbLine
10
1.2700075160891535
20
6.8100000000282446
30
0
11
0.018852484452189393
21
6.8099905962354823
31
0
6
DASHED
0
LINE
5
200
100
AcDbEntity
8
0
100
AcDbLine
10
1.2699924839108492
20
6.2699999999717537
30
0
11
0.018837452273883466
21
6.2699905961789915
31
0
6
DASHED
0
ARC
5
201
100
AcDbEntity
8
0
100
AcDbCircle
10
1.2700000000000022
20
5.2699999999999996
30
0
40
1.0000000000000004
210
0
220
0
230
1
100
AcDbArc
50
-89.999569359813208
51
90.000430640186934
6
DASHED
0
LINE
5
202
100
AcDbEntity
8
0
100
AcDbLine
10
1.2700075160891535
20
4.2700000000282445
30
0
11
0.018852484452189393
21
4.2699905962354823
31
0
6
DASHED
0
LWPOLYLINE
5
203
100
AcDbEntity
8
0
100
AcDbPolyline
90
4
70
1
43
0.0
10
18.780000000000005
20
18.969999999999999
10
15.510000000000003
20
18.969999999999999
10
15.510000000000003
20
16.969999999999999
10
18.780000000000005
20
16.969999999999999
0
LWPOLYLINE
5
204
100
AcDbEntity
8
0
100
AcDbPolyline
90
4
70
1
43
0.0
10
-0.98999999999999755
20
16.969999999999999
10
2.2800000000000042
20
16.969999999999999
10
2.2800000000000042
20
18.969999999999999
10
-0.98999999999999755
20
18.969999999999999
0
LWPOLYLINE
5
205
100
AcDbEntity
8
0
100
AcDbPolyline
90
4
70
1
43
0.0
10
15.510000000000003
20
14.429999999999998
10
18.780000000000005
20
14.429999999999998
10
18.780000000000005
20
16.43
10
15.510000000000003
20
16.43
0
LWPOLYLINE
5
206
100
AcDbEntity
8
0
100
AcDbPolyline
90
4
70
1
43
0.0
10
-0.98999999999999755
20
14.429999999999998
10
2.2800000000000042
20
14.429999999999998
10
2.2800000000000042
20
16.43
10
-0.98999999999999755
20
16.43
0
LWPOLYLINE
5
207
100
AcDbEntity
8
0
100
AcDbPolyline
90
4
70
1
43
0.0
10
15.510000000000003
20
11.889999999999999
10
18.780000000000005
20
11.889999999999999
10
18.780000000000005
20
13.890000000000001
10
15.510000000000003
20
13.890000000000001
0
LWPOLYLINE
5
208
100
AcDbEntity
8
0
100
AcDbPolyline
90
4
70
1
43
0.0
10
-0.98999999999999755
20
11.889999999999999
10
2.2800000000000042
20
11.889999999999999
10
2.2800000000000042
20
13.890000000000001
10
-0.98999999999999755
20
13.890000000000001
0
LWPOLYLINE
5
209
100
AcDbEntity
8
0
100
AcDbPolyline
90
4
70
1
43
0.0
10
15.510000000000003
20
9.3499999999999979
10
18.780000000000005
20
9.3499999999999979
10
18.780000000000005
20
11.35
10
15.510000000000003
20
11.35
0
LWPOLYLINE
5
210
100
AcDbEntity
8
0
100
AcDbPolyline
90
4
70
1
43
0.0
10
-0.98999999999999755
20
9.3499999999999979
10
2.2800000000000042
20
9.3499999999999979
10
2.2800000000000042
20
11.35
10
-0.98999999999999755
20
11.35
0
LWPOLYLINE
5
211
100
AcDbEntity
8
0
100
AcDbPolyline
90
4
70
1
43
0.0
10
15.510000000000003
20
6.8099999999999987
10
18.780000000000005
20
6.8099999999999987
10
18.780000000000005
20
8.8100000000000005
10
15.510000000000003
20
8.8100000000000005
0
LWPOLYLINE
5
212
100
AcDbEntity
8
0
100
AcDbPolyline
90
4
70
1
43
0.0
10
-0.98999999999999755
20
6.8099999999999987
10
2.2800000000000042
20
6.8099999999999987
10
2.2800000000000042
20
8.8100000000000005
10
-0.98999999999999755
20
8.8100000000000005
0
LWPOLYLINE
5
213
100
AcDbEntity
8
0
100
AcDbPolyline
90
4
70
1
43
0.0
10
15.510000000000003
20
4.2699999999999978
10
18.780000000000005
20
4.2699999999999978
10
18.780000000000005
20
6.2699999999999996
10
15.510000000000003
20
6.2699999999999996
0
LWPOLYLINE
5
214
100
AcDbEntity
8
0
100
AcDbPolyline
90
4
70
1
43
0.0
10
-0.98999999999999755
20
4.2699999999999978
10
2.2800000000000042
20
4.2699999999999978
10
2.2800000000000042
20
6.2699999999999996
10
-0.98999999999999755
20
6.2699999999999996
0
LWPOLYLINE
5
215
100
AcDbEntity
8
0
100
AcDbPolyline
90
4
70
1
43
0.0
10
15.510000000000003
20
1.7299999999999982
10
18.780000000000005
20
1.7299999999999982
10
18.780000000000005
20
3.73
10
15.510000000000003
20
3.73
0
LWPOLYLINE
5
216
100
AcDbEntity
8
0
100
AcDbPolyline
90
4
70
1
43
0.0
10
-0.98999999999999755
20
1.7299999999999982
10
2.2800000000000042
20
1.7299999999999982
10
2.2800000000000042
20
3.73
10
-0.98999999999999755
20
3.73
0
ENDSEC
0
SECTION
2
OBJECTS
0
DICTIONARY
5
C
100
AcDbDictionary
3
ACAD_GROUP
350
D
3
ACAD_MLINESTYLE
350
17
0
DICTIONARY
5
D
100
AcDbDictionary
0
DICTIONARY
5
1A
330
C
100
AcDbDictionary
0
DICTIONARY
5
17
100
AcDbDictionary
0
ENDSEC
0
EOF
